<svg width="122" height="122" viewBox="0 0 122 122" fill="none" xmlns="http://www.w3.org/2000/svg">
<g clip-path="url(#clip0_374_341)">
<path d="M101.473 105.196C99.5562 101.052 95.3676 98.3759 90.8026 98.3759C89.0914 98.3759 87.4332 98.744 85.8738 99.4646C83.0287 100.782 80.8616 103.133 79.7792 106.081C78.6969 109.027 78.8251 112.216 80.145 115.068C82.0615 119.207 86.2525 121.883 90.8171 121.883C92.5264 121.883 94.1798 121.518 95.7416 120.795C98.5911 119.477 100.756 117.128 101.842 114.178C102.925 111.232 102.791 108.041 101.473 105.196Z" fill="#205EDC"/>
<path d="M70.193 22.6728C71.6584 23.3253 73.2135 23.6548 74.8095 23.6548C79.3081 23.6548 83.394 21.0001 85.2209 16.8929C87.7687 11.1535 85.1737 4.41079 79.4343 1.86301C77.9689 1.21288 76.4181 0.883301 74.8221 0.883301C70.3236 0.883301 66.2376 3.53806 64.4107 7.64527C61.861 13.3847 64.4599 20.123 70.193 22.6728Z" fill="#205EDC"/>
<path d="M81.931 64.8595C81.0284 67.1933 81.1397 69.3604 82.237 70.9646C83.0861 72.1968 84.4167 72.9091 85.8884 72.9091C88.1624 72.9091 90.1498 71.2726 91.2066 68.5325C98.8774 48.6167 94.1606 35.1037 76.8764 27.2677C76.2668 26.7949 75.6422 26.3733 74.9598 25.9733C70.9254 23.586 67.0856 22.3751 63.5538 22.3751C62.9741 22.3751 62.4565 22.4073 61.806 22.4907L59.6798 23.1451C56.1311 24.6723 45.6489 25.5218 28.5314 25.6674C24.3452 25.6972 22.1651 28.5337 22.1781 31.3147C22.1911 34.0572 24.3794 36.8339 28.5487 36.8339C34.0506 36.789 39.6252 36.4618 45.0248 36.1515L47.6496 35.9954L31.9012 67.084L20.741 89.4276C20.0032 91.092 17.772 96.1491 21.6566 98.3157C21.6888 98.3499 21.7207 98.3822 21.7573 98.4164L21.6566 98.6433L21.8406 98.4872C22.5037 99.0327 23.723 99.3474 24.6559 99.3474C26.2558 99.3474 28.577 98.6284 30.5514 95.2209L45.6883 72.0301C45.6883 72.0238 46.0882 71.3477 46.7537 71.3477C46.9311 71.3477 47.1258 71.3969 47.3354 71.4846C47.6583 71.6238 47.853 71.7882 47.93 71.9872C48.0606 72.3317 47.8703 72.7703 47.8659 72.7785L31.8477 109.6C29.9312 113.919 30.6902 117.468 33.8307 118.861C34.7676 119.278 35.6769 119.49 36.5366 119.49C38.109 119.49 40.293 118.784 41.7647 115.462C42.062 114.91 71.1012 60.641 78.7359 43.9726C84.2672 49.2456 85.313 56.0803 81.931 64.8595Z" fill="#205EDC"/>
</g>
<defs>
<clipPath id="clip0_374_341">
<rect width="121" height="121" fill="white" transform="translate(0.5 0.883301)"/>
</clipPath>
</defs>
</svg>
