<svg width="45" height="46" viewBox="0 0 45 46" fill="none" xmlns="http://www.w3.org/2000/svg">
<circle cx="22.5" cy="22.7754" r="22.5" fill="white"/>
<g clip-path="url(#clip0_420_6730)">
<path d="M22.5 15.9129C23.805 15.9129 24.8625 16.9704 24.8625 18.2754C24.8625 19.5804 23.805 20.6379 22.5 20.6379C21.195 20.6379 20.1375 19.5804 20.1375 18.2754C20.1375 16.9704 21.195 15.9129 22.5 15.9129ZM22.5 26.0379C25.8413 26.0379 29.3625 27.6804 29.3625 28.4004V29.6379H15.6375V28.4004C15.6375 27.6804 19.1588 26.0379 22.5 26.0379ZM22.5 13.7754C20.0138 13.7754 18 15.7891 18 18.2754C18 20.7616 20.0138 22.7754 22.5 22.7754C24.9862 22.7754 27 20.7616 27 18.2754C27 15.7891 24.9862 13.7754 22.5 13.7754ZM22.5 23.9004C19.4963 23.9004 13.5 25.4079 13.5 28.4004V31.7754H31.5V28.4004C31.5 25.4079 25.5037 23.9004 22.5 23.9004Z" fill="#16192C"/>
</g>
<defs>
<clipPath id="clip0_420_6730">
<rect width="27" height="27" fill="white" transform="translate(9 9.27539)"/>
</clipPath>
</defs>
</svg>
