<svg width="119" height="118" viewBox="0 0 119 118" fill="none" xmlns="http://www.w3.org/2000/svg">
<g clip-path="url(#clip0_429_7792)">
<path d="M98.3883 54.3304C95.4032 60.8185 87.6972 63.6681 81.2091 60.6831C74.7211 57.6981 71.8715 49.992 74.8565 43.5039C77.8415 37.0159 85.5476 34.1663 92.0356 37.1513C98.5237 40.1363 101.373 47.8424 98.3883 54.3304ZM83.4832 69.0205C81.6013 68.6842 79.7967 68.1798 78.1158 67.4064C73.219 65.1427 69.4189 61.0306 67.5478 55.9707C65.6767 50.9109 65.8872 45.3157 68.1331 40.4107C70.4067 35.469 74.4135 31.895 79.0374 29.9898C78.7714 28.9613 78.2793 28.0051 77.5969 27.1909C76.9146 26.3766 76.0592 25.7249 75.093 25.2831C71.3952 23.5818 66.9777 25.2153 65.2764 28.9132L64.8278 29.8881C53.4826 28.2528 42.4361 34.2905 37.6415 44.7117L28.3616 64.8818L18.545 68.5119L16.9983 71.8736L77.5086 99.7132L79.0552 96.3515L75.4251 86.5348L83.4832 69.0205ZM42.6135 95.8784C46.345 97.5952 50.7134 95.9798 52.4302 92.2483L38.9834 86.0618C38.1631 87.8449 38.0846 89.8809 38.7654 91.7219C39.4462 93.5629 40.8304 95.058 42.6135 95.8784Z" fill="#6788FF"/>
</g>
<defs>
<clipPath id="clip0_429_7792">
<rect width="88.8098" height="88.8098" fill="white" transform="translate(37.8457) rotate(24.7062)"/>
</clipPath>
</defs>
</svg>
