<svg width="118" height="119" viewBox="0 0 118 119" fill="none" xmlns="http://www.w3.org/2000/svg">
<g clip-path="url(#clip0_429_7792)">
<path d="M37.1967 27.3713C34.2116 33.8594 37.0613 41.5654 43.5493 44.5505C50.0374 47.5355 57.7435 44.6859 60.7285 38.1978C63.7135 31.7098 60.8639 24.0037 54.3758 21.0187C47.8878 18.0337 40.1817 20.8833 37.1967 27.3713ZM35.7383 48.2479C37.2181 49.4583 38.7752 50.5005 40.456 51.2738C45.3611 53.5198 50.9563 53.7302 56.0162 51.8592C61.076 49.9881 65.1882 46.188 67.4519 41.2911C69.7254 36.3495 69.8327 30.9814 68.2711 26.2304C69.2253 25.7632 70.2716 25.5148 71.3339 25.5033C72.3962 25.4917 73.4477 25.7173 74.4118 26.1636C78.1096 27.8649 79.7432 32.2824 78.0419 35.9802L77.5933 36.9551C86.2165 44.5069 88.8184 56.824 84.0238 67.2452L74.744 87.4153L78.3741 97.232L76.8274 100.594L16.317 72.754L17.8636 69.3923L27.6803 65.7623L35.7383 48.2479ZM41.9323 96.7589C38.2008 95.0421 36.5854 90.6737 38.3022 86.9422L51.7489 93.1288C50.9285 94.912 49.4334 96.2962 47.5924 96.977C45.7514 97.6577 43.7154 97.5793 41.9323 96.7589Z" fill="#6788FF"/>
</g>
<defs>
<clipPath id="clip0_429_7792">
<rect width="88.81" height="88.8098" fill="white" transform="matrix(-0.908463 -0.417966 -0.417966 0.908463 117.846 38)"/>
</clipPath>
</defs>
</svg>
