<svg width="23" height="23" viewBox="0 0 23 23" fill="none" xmlns="http://www.w3.org/2000/svg">
<path d="M21.5004 16.42V19.42C21.5016 19.6985 21.4445 19.9742 21.3329 20.2294C21.2214 20.4845 21.0577 20.7136 20.8525 20.9019C20.6473 21.0901 20.405 21.2335 20.1412 21.3227C19.8773 21.4119 19.5978 21.4451 19.3204 21.42C16.2433 21.0856 13.2874 20.0342 10.6904 18.35C8.27425 16.8147 6.22576 14.7662 4.69042 12.35C3.0004 9.74121 1.94866 6.771 1.62042 3.68001C1.59543 3.40347 1.6283 3.12477 1.71692 2.86163C1.80555 2.59849 1.94799 2.35669 2.13519 2.15163C2.32238 1.94656 2.55023 1.78271 2.80421 1.67053C3.0582 1.55834 3.33276 1.50027 3.61042 1.50001H6.61042C7.09573 1.49523 7.56621 1.66708 7.93418 1.98354C8.30215 2.29999 8.5425 2.73945 8.61042 3.22001C8.73704 4.18007 8.97187 5.12273 9.31042 6.03001C9.44497 6.38793 9.47408 6.77692 9.39433 7.15089C9.31457 7.52485 9.12928 7.86812 8.86042 8.14001L7.59042 9.41001C9.01398 11.9136 11.0869 13.9865 13.5904 15.41L14.8604 14.14C15.1323 13.8711 15.4756 13.6859 15.8495 13.6061C16.2235 13.5263 16.6125 13.5555 16.9704 13.69C17.8777 14.0286 18.8204 14.2634 19.7804 14.39C20.2662 14.4585 20.7098 14.7032 21.027 15.0775C21.3441 15.4518 21.5126 15.9296 21.5004 16.42Z" stroke="#0D052B" stroke-opacity="0.5" stroke-width="2" stroke-linecap="round" stroke-linejoin="round"/>
</svg>
