<svg width="122" height="121" viewBox="0 0 122 121" fill="none" xmlns="http://www.w3.org/2000/svg">
<g clip-path="url(#clip0_420_7013)">
<path d="M119.571 6.84975C115.629 2.9078 109.08 5.76288 103.814 8.69051C98.6114 11.5827 91.9294 16.2329 83.9536 22.5129C68.3798 34.7745 52.2873 49.6918 43.2388 58.7406L43.075 58.9039L42.9318 59.0854C41.4741 60.9323 34.9777 69.2976 32.1266 75.1876C27.5487 75.3757 23.136 77.268 19.8484 80.5555C15.0897 85.3135 13.8724 89.601 12.5835 94.1404C11.3425 98.511 10.0595 103.03 5.232 109.62L0.5 116.08L8.50538 115.888C8.79228 115.881 15.617 115.706 23.4841 114.585C34.7598 112.977 42.0805 110.357 45.8648 106.572C49.1526 103.285 51.0444 98.8717 51.2326 94.2938C57.1228 91.4417 65.4867 84.9434 67.3331 83.4853L67.5141 83.3423L67.6772 83.1792C76.7272 74.1293 91.6459 58.0363 103.906 42.4658C110.186 34.4902 114.837 27.8085 117.729 22.6065C120.657 17.3408 123.512 10.7915 119.571 6.84975ZM40.2922 101C36.6802 104.612 25.3598 106.696 15.8483 107.559C18.2374 103.079 19.2753 99.4237 20.1642 96.2931C21.3363 92.1647 22.1106 89.4374 25.4203 86.1279C27.4026 84.1456 30.1013 83.0502 32.8729 83.0502C33.0242 83.0502 33.1757 83.0535 33.3272 83.0601L43.3602 93.0934C43.4871 96.022 42.3828 98.9095 40.2922 101ZM48.3527 86.9406L39.4797 78.0675C40.932 75.2724 43.7679 71.1059 46.4273 67.5012L58.9175 79.9914C55.3135 82.6515 51.1475 85.4882 48.3527 86.9406ZM95.7034 40.1191C85.2168 53.1734 73.1513 66.3243 64.8736 74.8028L83.9536 58.7406C92.4312 50.4639 90.7568 43.3913 103.814 32.9035C121.091 19.0254 110.811 13.6962 113.417 13.0037C112.724 15.6097 109.582 22.8423 95.7034 40.1191Z" fill="#205EDC"/>
</g>
<defs>
<clipPath id="clip0_420_7013">
<rect width="121" height="121" fill="white" transform="translate(0.5)"/>
</clipPath>
</defs>
</svg>
