<svg width="122" height="121" viewBox="0 0 122 121" fill="none" xmlns="http://www.w3.org/2000/svg">
<g clip-path="url(#clip0_420_6881)">
<path d="M107.395 42.0296C94.5222 48.8696 81.7102 55.9331 69.1933 63.4437C64.7426 59.0298 61.0535 55.5165 60.103 51.3391C60.1551 51.0896 59.9381 48.5116 59.9511 48.147C60.001 46.8363 60.0661 45.5256 60.205 44.2192C60.6064 40.541 61.2705 36.8866 61.8694 33.2322C62.8416 27.2754 60.307 21.349 54.0377 19.6694C51.809 19.0726 49.2722 19.2983 46.9915 20.1772C46.1582 19.7215 45.2012 19.4046 44.1097 19.2831C34.8935 18.261 25.8465 16.232 17.1685 12.9509C8.50346 9.67629 4.79701 23.5364 13.3579 26.7741C21.8211 29.975 30.5816 31.8412 39.4983 33.0478C39.4679 33.217 39.4397 33.3863 39.4072 33.5556C28.9931 35.5542 18.7808 38.3774 8.72697 41.8408C0.0402496 44.8312 3.77274 58.6848 12.5376 55.6641C20.8055 52.8148 29.1754 50.3995 37.6777 48.5181C37.669 51.6473 37.9858 54.7309 38.8256 57.6952C40.8221 64.7219 45.186 70.3814 50.0882 75.5852C47.0979 77.6163 44.0902 79.6106 40.9306 81.3315C35.3188 84.3891 29.0734 88.4579 26.9142 94.8465C22.9061 106.708 35.2776 111.408 41.5599 118.65C47.6252 125.646 57.7224 115.462 51.6962 108.511C48.682 105.037 44.5849 102.9 41.3906 99.651C39.8542 98.0821 40.056 99.4991 41.7357 97.9736C44.1748 95.7536 47.0045 94.4516 49.8321 92.8023C58.7098 87.6289 67.0406 81.4595 75.8945 76.1971C88.6305 68.6366 101.544 61.3626 114.626 54.4054C122.794 50.0653 115.554 37.6917 107.395 42.0296Z" fill="#205EDC"/>
<path d="M68.4446 22.4948C74.6564 22.4948 79.692 17.4591 79.692 11.2474C79.692 5.03563 74.6564 0 68.4446 0C62.2329 0 57.1973 5.03563 57.1973 11.2474C57.1973 17.4591 62.2329 22.4948 68.4446 22.4948Z" fill="#205EDC"/>
</g>
<defs>
<clipPath id="clip0_420_6881">
<rect width="121" height="121" fill="white" transform="translate(0.5)"/>
</clipPath>
</defs>
</svg>
