<svg width="122" height="122" viewBox="0 0 122 122" fill="none" xmlns="http://www.w3.org/2000/svg">
<g clip-path="url(#clip0_420_745)">
<path d="M108.822 58.1647C115.824 58.1647 121.5 52.4885 121.5 45.4866C121.5 38.4847 115.824 32.8085 108.822 32.8085C101.82 32.8085 96.1436 38.4847 96.1436 45.4866C96.1436 52.4885 101.82 58.1647 108.822 58.1647Z" fill="#205EDC"/>
<path d="M97.2637 56.6894C97.2249 56.6137 97.1744 56.5535 97.1395 56.4817L79.8238 22.0911C78.2359 18.9308 74.3787 17.6612 71.2204 19.2492C68.062 20.841 66.7886 24.6923 68.3765 27.8526L77.3158 45.6128C67.9242 45.6128 58.5345 45.6128 49.1409 45.6128C47.6695 45.6128 46.3359 45.8283 45.1362 46.2185C35.2166 33.0551 24.2778 20.7264 12.6558 9.0267C6.17791 2.50615 -3.88536 12.5752 2.58666 19.0919C14.8202 31.4089 26.4209 44.3743 36.589 58.4618C36.8608 58.8364 37.1539 59.1645 37.4568 59.4673C37.5344 60.1196 37.6567 60.764 37.8275 61.3949C37.7829 61.7385 37.7499 62.088 37.7499 62.4626C37.7499 77.9594 37.7499 93.4677 37.7499 108.964C37.7499 118.144 51.9848 118.144 51.9848 108.964C51.9848 95.9156 51.9848 82.8687 51.9848 69.8218C62.745 69.8218 73.5052 69.8218 84.2654 69.8218C85.9775 69.8218 87.4878 69.5189 88.8272 68.9987L92.4398 76.8257L89.0427 75.7891C85.6572 74.7583 82.0776 76.6587 81.0468 80.0403C80.0121 83.4258 81.9145 87.0054 85.3 88.0401L102.381 93.26C102.996 93.4464 103.629 93.5376 104.254 93.5376C106.075 93.5376 107.845 92.7611 109.08 91.346C110.738 89.4436 111.13 86.7395 110.07 84.4488L97.2637 56.6894Z" fill="#205EDC"/>
</g>
<defs>
<clipPath id="clip0_420_745">
<rect width="121" height="121" fill="white" transform="translate(0.5 0.883301)"/>
</clipPath>
</defs>
</svg>
