<svg width="90" height="90" viewBox="0 0 90 90" fill="none" xmlns="http://www.w3.org/2000/svg">
<g clip-path="url(#clip0_503_7317)">
<path d="M80.5696 42.6061C85.7777 42.6061 89.9996 38.3841 89.9996 33.1761C89.9996 27.968 85.7777 23.7461 80.5696 23.7461C75.3616 23.7461 71.1396 27.968 71.1396 33.1761C71.1396 38.3841 75.3616 42.6061 80.5696 42.6061Z" fill="#6788FF"/>
<path d="M71.973 41.5087C71.9442 41.4524 71.9066 41.4076 71.8806 41.3542L59.0012 15.7744C57.8201 13.4238 54.9511 12.4795 52.6019 13.6606C50.2527 14.8446 49.3055 17.7092 50.4866 20.0598L57.1357 33.2699C50.1502 33.2699 43.1662 33.2699 36.1792 33.2699C35.0848 33.2699 34.0928 33.4302 33.2005 33.7204C25.8223 23.9295 17.686 14.7594 9.04147 6.05709C4.22324 1.2071 -3.26184 8.69651 1.55206 13.5436C10.6514 22.705 19.28 32.3487 26.8431 42.827C27.0452 43.1056 27.2632 43.3497 27.4885 43.5749C27.5462 44.06 27.6372 44.5394 27.7643 45.0087C27.7311 45.2642 27.7065 45.5241 27.7065 45.8028C27.7065 57.3293 27.7065 68.8645 27.7065 80.391C27.7065 87.2191 38.2945 87.2191 38.2945 80.391C38.2945 70.6852 38.2945 60.9809 38.2945 51.2766C46.2979 51.2766 54.3014 51.2766 62.3048 51.2766C63.5783 51.2766 64.7016 51.0513 65.6979 50.6644L68.385 56.4861L65.8582 55.715C63.3401 54.9483 60.6775 56.3619 59.9108 58.8771C59.1413 61.3953 60.5563 64.0578 63.0744 64.8274L75.7791 68.71C76.2368 68.8486 76.7075 68.9165 77.1724 68.9165C78.5268 68.9165 79.8436 68.3389 80.7619 67.2863C81.995 65.8713 82.2867 63.86 81.4983 62.1562L71.973 41.5087Z" fill="#6788FF"/>
</g>
<defs>
<clipPath id="clip0_503_7317">
<rect width="90" height="90" fill="white"/>
</clipPath>
</defs>
</svg>
