<svg width="122" height="122" viewBox="0 0 122 122" fill="none" xmlns="http://www.w3.org/2000/svg">
<g clip-path="url(#clip0_420_751)">
<path d="M98.9874 0.883301C95.1535 0.883301 92.043 3.99161 92.043 7.82763V19.968C83.082 27.7266 73.3821 34.5067 62.6683 39.5808C61.0997 39.9136 59.6088 40.5925 58.2909 41.5287C58.1445 41.5908 57.998 41.6641 57.8494 41.724C55.6773 42.6225 54.4726 44.3575 54.0622 46.2322C43.568 45.1628 33.3091 43.226 23.3097 39.7405C16.0392 37.2046 12.9442 48.7104 20.1437 51.2219C31.9002 55.322 44.0872 57.2766 56.4583 58.3793C56.4894 58.3837 56.5116 58.377 56.5426 58.3793C65.2951 66.7901 75.9757 71.3006 88.1271 71.5313C89.5759 71.558 90.8805 71.345 92.0452 70.9567V114.941C92.0452 118.777 95.1558 121.883 98.9962 121.883C102.837 121.883 105.945 118.786 105.945 114.941V7.82763C105.936 3.99161 102.826 0.883301 98.9874 0.883301ZM92.043 49.8597C90.9248 49.4604 89.6757 49.223 88.2847 49.1985C83.7231 49.112 79.825 47.9694 76.2663 45.6864C81.753 42.5471 86.9978 39.0505 92.043 35.2189V49.8597ZM50.9982 14.5679C57.5743 14.5679 62.9079 19.8992 62.9079 26.4753C62.9079 33.0513 57.5765 38.3827 50.9982 38.3827C44.4222 38.3827 39.0908 33.0513 39.0908 26.4753C39.0908 19.8992 44.4222 14.5679 50.9982 14.5679Z" fill="#205EDC"/>
</g>
<defs>
<clipPath id="clip0_420_751">
<rect width="121" height="121" fill="white" transform="translate(0.5 0.883301)"/>
</clipPath>
</defs>
</svg>
