<svg width="122" height="121" viewBox="0 0 122 121" fill="none" xmlns="http://www.w3.org/2000/svg">
<g clip-path="url(#clip0_503_7094)">
<path d="M118.047 50.2576C104.351 42.4777 88.7849 38.3652 73.0332 38.3652H66.9783C66.7038 38.3652 66.4319 38.387 66.1619 38.4197C63.5886 38.1988 60.9312 38.9425 58.7815 40.7153L33.9948 61.1577C30.7005 63.8747 29.5468 68.2204 30.7301 72.0629L2.47631 100.563C-0.175197 103.238 -0.156105 107.555 2.51813 110.206C3.84774 111.524 5.58329 112.182 7.31883 112.182C9.07347 112.182 10.8281 111.509 12.1609 110.164L43.118 78.9369C43.4485 78.8496 43.7739 78.7409 44.0967 78.6196C44.6253 78.99 45.214 79.2937 45.8581 79.5083L67.0438 86.5582L70.2226 93.8822L68.0816 96.0209L46.6 95.9978C44.8667 95.9978 43.2762 96.5646 41.9916 97.5183C39.8101 98.8838 38.3514 101.415 38.3514 104.173C38.3514 108.429 41.8143 112.005 46.0704 112.005H46.59H60.2366H60.5107C61.4117 112.005 62.2767 111.535 62.9154 110.899L71.8636 101.938L73.1409 100.633L76.2815 107.854C77.3971 110.424 79.9058 111.952 82.5401 111.952C83.446 111.952 84.3674 111.767 85.2516 111.383C88.7058 109.883 90.2909 105.866 88.7913 102.412L83.511 90.2456L111.549 62.2342C114.784 63.9106 118.793 62.751 120.609 59.554C122.469 56.2798 121.322 52.1173 118.047 50.2576ZM78.3407 78.3346C77.5693 76.5572 76.0774 75.1917 74.2392 74.5798L56.8755 68.8018L71.7968 56.4957C73.2782 55.2738 74.316 53.7192 74.9147 52.0323C85.3602 52.2877 95.6662 54.6638 105.155 58.9822L80.5922 83.5217L78.3407 78.3346ZM56.6696 20.4183C56.6696 14.0116 61.8635 8.81818 68.2698 8.81818C74.6765 8.81818 79.8699 14.0116 79.8699 20.4183C79.8699 26.825 74.6765 32.0185 68.2698 32.0185C61.8631 32.0185 56.6696 26.825 56.6696 20.4183Z" fill="#6788FF"/>
</g>
<defs>
<clipPath id="clip0_503_7094">
<rect width="121" height="121" fill="white" transform="translate(0.5)"/>
</clipPath>
</defs>
</svg>
