<svg width="122" height="121" viewBox="0 0 122 121" fill="none" xmlns="http://www.w3.org/2000/svg">
<g clip-path="url(#clip0_503_351)">
<path d="M37.4724 55.4583L34.1113 65.8778H40.8335L37.4724 55.4583Z" fill="#6788FF"/>
<path d="M102.342 10.0833H48.5638V26.8889H62.0082V33.6111H18.3138C12.5999 33.6111 8.23047 37.9805 8.23047 43.6944V80.6666C8.23047 86.3805 12.5999 90.75 18.3138 90.75H21.6749V107.892L42.8499 90.75H65.3694V67.2222H102.342C108.055 67.2222 112.425 62.8528 112.425 57.1389V20.1666C112.425 14.4528 108.055 10.0833 102.342 10.0833ZM44.5305 76.9694L42.8499 71.5916H32.4305L30.4138 76.9694H22.3471L33.4388 47.0555H41.5055L52.5971 76.9694H44.5305ZM95.6194 50.4166V57.1389C91.2499 57.1389 86.5444 55.7944 82.511 53.7778C78.4777 55.7944 73.7721 56.8028 69.0666 57.1389L68.7305 50.4166C71.0833 50.4166 73.436 50.0805 75.7888 49.4083C72.7638 46.3833 70.7471 42.6861 69.7388 38.6528H76.7971C77.8055 41.6778 79.8221 44.0305 82.1749 46.0472C85.8721 43.0222 88.2249 38.6528 88.561 33.6111H68.3944V26.8889H78.4777V20.1666H85.1999V26.8889H96.2916L96.6277 30.25C96.9638 37.3083 94.2749 44.3666 89.2333 49.4083C91.586 50.0805 93.6027 50.4166 95.6194 50.4166Z" fill="#6788FF"/>
</g>
<defs>
<clipPath id="clip0_503_351">
<rect width="121" height="121" fill="white" transform="translate(0.5)"/>
</clipPath>
</defs>
</svg>
