<svg width="122" height="121" viewBox="0 0 122 121" fill="none" xmlns="http://www.w3.org/2000/svg">
<path d="M58.4792 13.8646C58.4792 11.2245 61.1161 9.39709 63.5881 10.3241L95.7441 22.3822C102.139 24.7803 106.376 30.8941 106.376 37.7244V54.2047C106.376 56.8448 103.739 58.6722 101.267 57.7452L66.0417 44.5346V88.2291C66.0417 88.5044 66.0123 88.7728 65.9564 89.0313C66.0119 89.5953 66.0417 90.1692 66.0417 90.75C66.0417 102.143 54.5679 110.917 40.8333 110.917C27.0988 110.917 15.625 102.143 15.625 90.75C15.625 79.3574 27.0988 70.5833 40.8333 70.5833C47.6503 70.5833 53.9103 72.7448 58.4869 76.3151L58.4792 13.8646Z" fill="#205EDC"/>
</svg>
