<svg width="122" height="121" viewBox="0 0 122 121" fill="none" xmlns="http://www.w3.org/2000/svg">
<path fill-rule="evenodd" clip-rule="evenodd" d="M60.9993 15.125C58.7797 15.1251 56.6222 15.8576 54.8613 17.2088C53.1004 18.5601 51.8345 20.4546 51.26 22.5985C50.6856 24.7425 50.8346 27.0161 51.6839 29.0668C52.5333 31.1175 54.0355 32.8306 55.9577 33.9405V40.3333H40.8327C24.6993 40.3333 20.666 53.7795 20.666 60.5V95.7917C20.666 99.1545 22.6827 105.875 30.7493 105.875H35.791V85.7083C35.791 84.3712 36.3222 83.0888 37.2677 82.1433C38.2132 81.1978 39.4955 80.6667 40.8327 80.6667H81.166C82.5031 80.6667 83.7855 81.1978 84.731 82.1433C85.6765 83.0888 86.2077 84.3712 86.2077 85.7083V105.875H91.2493C99.316 105.875 101.333 99.1545 101.333 95.7917V60.5C101.333 44.3667 87.8866 40.3333 81.166 40.3333H66.041V33.9405C67.9632 32.8306 69.4654 31.1175 70.3148 29.0668C71.1641 27.0161 71.3131 24.7425 70.7386 22.5985C70.1642 20.4546 68.8983 18.5601 67.1374 17.2088C65.3765 15.8576 63.219 15.1251 60.9993 15.125V15.125ZM76.1243 105.875V90.75H66.041V105.875H76.1243ZM55.9577 105.875V90.75H45.8743V105.875H55.9577ZM106.374 90.75V65.5417C109.737 65.5417 116.458 67.5583 116.458 75.625V80.6667C116.458 84.0295 114.441 90.75 106.374 90.75ZM15.6243 65.5417V90.75C7.55768 90.75 5.54102 84.0295 5.54102 80.6667V75.625C5.54102 67.5583 12.2616 65.5417 15.6243 65.5417ZM45.8743 60.5C44.5372 60.5 43.2548 61.0312 42.3094 61.9767C41.3639 62.9222 40.8327 64.2045 40.8327 65.5417C40.8327 66.8788 41.3639 68.1612 42.3094 69.1067C43.2548 70.0522 44.5372 70.5833 45.8743 70.5833H45.8794C47.2165 70.5833 48.4989 70.0522 49.4444 69.1067C50.3899 68.1612 50.9211 66.8788 50.9211 65.5417C50.9211 64.2045 50.3899 62.9222 49.4444 61.9767C48.4989 61.0312 47.2165 60.5 45.8794 60.5H45.8743ZM71.0827 65.5417C71.0827 64.2045 71.6139 62.9222 72.5594 61.9767C73.5048 61.0312 74.7872 60.5 76.1243 60.5H76.1294C77.4665 60.5 78.7489 61.0312 79.6944 61.9767C80.6399 62.9222 81.1711 64.2045 81.1711 65.5417C81.1711 66.8788 80.6399 68.1612 79.6944 69.1067C78.7489 70.0522 77.4665 70.5833 76.1294 70.5833H76.1243C74.7872 70.5833 73.5048 70.0522 72.5594 69.1067C71.6139 68.1612 71.0827 66.8788 71.0827 65.5417Z" fill="#205EDC"/>
</svg>
