<svg width="122" height="121" viewBox="0 0 122 121" fill="none" xmlns="http://www.w3.org/2000/svg">
<path d="M119.08 96.8C116.537 96.8 114.114 96.2386 111.936 95.2488C109.717 94.2469 107.203 93.6419 104.574 93.6419C101.934 93.6419 99.4174 94.2518 97.1959 95.2488C95.0203 96.2386 92.5955 96.8 90.0496 96.8C87.5086 96.8 85.0741 96.2386 82.9106 95.2488C80.6527 94.2469 78.1335 93.6419 75.5344 93.6419C72.9039 93.6419 70.3847 94.2518 68.1559 95.2488C65.99 96.2386 63.5288 96.8 61.0096 96.8C58.4638 96.8 56.0413 96.2386 53.8464 95.2488C51.6176 94.2469 49.108 93.6419 46.4993 93.6419C43.8687 93.6419 41.3519 94.2518 39.1231 95.2488C36.9572 96.2386 34.4961 96.8 31.9502 96.8C29.4431 96.8 26.982 96.2386 24.8161 95.2488C22.5873 94.2469 20.068 93.6419 17.4399 93.6419C14.8287 93.6419 12.324 94.2518 10.0904 95.2488C7.8906 96.2386 5.46576 96.8 2.91992 96.8V86.1617C5.46334 86.1617 7.88818 85.5857 10.0904 84.6347C12.324 83.6086 14.8287 83.0036 17.4399 83.0036C20.068 83.0036 22.5873 83.6086 24.8161 84.6347C26.982 85.5857 29.4431 86.1617 31.9502 86.1617C34.4937 86.1617 36.9572 85.5857 39.1231 84.6347C41.3495 83.6086 43.8687 83.0036 46.4993 83.0036C49.108 83.0036 51.6152 83.6086 53.8464 84.6347C56.0413 85.5857 58.4638 86.1617 61.0096 86.1617C63.5288 86.1617 65.9875 85.5857 68.1559 84.6347C70.3847 83.6086 72.9039 83.0036 75.5344 83.0036C78.1311 83.0036 80.6479 83.6086 82.9106 84.6347C85.0765 85.5857 87.5086 86.1617 90.0496 86.1617C92.5955 86.1617 95.0203 85.5857 97.1959 84.6347C99.4174 83.6086 101.934 83.0036 104.574 83.0036C107.203 83.0036 109.717 83.6086 111.936 84.6347C114.114 85.5857 116.537 86.1617 119.08 86.1617V96.8ZM102.256 66.7049C109.884 66.7049 116.074 60.5339 116.074 52.9641C116.074 45.3871 109.884 39.2476 102.256 39.2476C94.6161 39.2476 88.433 45.3895 88.433 52.9641C88.433 60.5339 94.0668 66.7049 102.256 66.7049ZM21.7741 74.4295C22.8462 74.6836 23.8578 75.0539 24.8185 75.4847C26.9844 76.4575 29.4455 77.0359 31.9551 77.0359C34.4961 77.0359 36.9621 76.4599 39.1255 75.4847C41.3544 74.4828 43.8712 73.8487 46.5017 73.8487C49.1105 73.8487 51.6224 74.4828 53.8488 75.4847C56.0413 76.4575 58.4662 77.0359 61.012 77.0359C63.5288 77.0359 65.9924 76.4599 68.1559 75.4847C70.3871 74.4828 72.9039 73.8487 75.5344 73.8487C78.1335 73.8487 80.6527 74.4828 82.9106 75.4847C85.0789 76.4575 87.5086 77.0359 90.0544 77.0359C91.9057 77.0359 93.6893 76.7237 95.3712 76.1986L72.3207 34.923L99.1319 30.0661C103.067 29.3207 105.922 26.2522 105.922 22.3245C105.922 17.9927 102.372 14.52 98.0283 14.52L97.1329 14.5466L55.7171 22.0293C52.8106 22.6899 48.9604 26.9153 51.1529 32.0989L51.5063 32.9338L62.314 52.3011L21.7741 74.4295Z" fill="#205EDC"/>
</svg>
