<svg width="126" height="121" viewBox="0 0 126 121" fill="none" xmlns="http://www.w3.org/2000/svg">
<g filter="url(#filter0_d_503_7098)">
<path d="M121.08 96.8C118.537 96.8 116.114 96.2386 113.936 95.2488C111.717 94.2469 109.203 93.6419 106.574 93.6419C103.934 93.6419 101.417 94.2518 99.1959 95.2488C97.0203 96.2386 94.5955 96.8 92.0496 96.8C89.5086 96.8 87.0741 96.2386 84.9106 95.2488C82.6527 94.2469 80.1335 93.6419 77.5344 93.6419C74.9039 93.6419 72.3847 94.2518 70.1559 95.2488C67.99 96.2386 65.5288 96.8 63.0096 96.8C60.4638 96.8 58.0413 96.2386 55.8464 95.2488C53.6176 94.2469 51.108 93.6419 48.4993 93.6419C45.8687 93.6419 43.3519 94.2518 41.1231 95.2488C38.9572 96.2386 36.4961 96.8 33.9502 96.8C31.4431 96.8 28.982 96.2386 26.8161 95.2488C24.5873 94.2469 22.068 93.6419 19.4399 93.6419C16.8287 93.6419 14.324 94.2518 12.0904 95.2488C9.8906 96.2386 7.46576 96.8 4.91992 96.8V86.1617C7.46334 86.1617 9.88818 85.5857 12.0904 84.6347C14.324 83.6086 16.8287 83.0036 19.4399 83.0036C22.068 83.0036 24.5873 83.6086 26.8161 84.6347C28.982 85.5857 31.4431 86.1617 33.9502 86.1617C36.4937 86.1617 38.9572 85.5857 41.1231 84.6347C43.3495 83.6086 45.8687 83.0036 48.4993 83.0036C51.108 83.0036 53.6152 83.6086 55.8464 84.6347C58.0413 85.5857 60.4638 86.1617 63.0096 86.1617C65.5288 86.1617 67.9875 85.5857 70.1559 84.6347C72.3847 83.6086 74.9039 83.0036 77.5344 83.0036C80.1311 83.0036 82.6479 83.6086 84.9106 84.6347C87.0765 85.5857 89.5086 86.1617 92.0496 86.1617C94.5955 86.1617 97.0203 85.5857 99.1959 84.6347C101.417 83.6086 103.934 83.0036 106.574 83.0036C109.203 83.0036 111.717 83.6086 113.936 84.6347C116.114 85.5857 118.537 86.1617 121.08 86.1617V96.8ZM104.256 66.7049C111.884 66.7049 118.074 60.5339 118.074 52.9641C118.074 45.3871 111.884 39.2476 104.256 39.2476C96.6161 39.2476 90.433 45.3895 90.433 52.9641C90.433 60.5339 96.0668 66.7049 104.256 66.7049ZM23.7741 74.4295C24.8462 74.6836 25.8578 75.0539 26.8185 75.4847C28.9844 76.4575 31.4455 77.0359 33.9551 77.0359C36.4961 77.0359 38.9621 76.4599 41.1255 75.4847C43.3544 74.4828 45.8712 73.8487 48.5017 73.8487C51.1105 73.8487 53.6224 74.4828 55.8488 75.4847C58.0413 76.4575 60.4662 77.0359 63.012 77.0359C65.5288 77.0359 67.9924 76.4599 70.1559 75.4847C72.3871 74.4828 74.9039 73.8487 77.5344 73.8487C80.1335 73.8487 82.6527 74.4828 84.9106 75.4847C87.0789 76.4575 89.5086 77.0359 92.0544 77.0359C93.9057 77.0359 95.6893 76.7237 97.3712 76.1986L74.3207 34.923L101.132 30.0661C105.067 29.3207 107.922 26.2522 107.922 22.3245C107.922 17.9927 104.372 14.52 100.028 14.52L99.1329 14.5466L57.7171 22.0293C54.8106 22.6899 50.9604 26.9153 53.1529 32.0989L53.5063 32.9338L64.314 52.3011L23.7741 74.4295Z" fill="#6788FF"/>
</g>
<defs>
<filter id="filter0_d_503_7098" x="-1.5" y="0" width="129" height="129" filterUnits="userSpaceOnUse" color-interpolation-filters="sRGB">
<feFlood flood-opacity="0" result="BackgroundImageFix"/>
<feColorMatrix in="SourceAlpha" type="matrix" values="0 0 0 0 0 0 0 0 0 0 0 0 0 0 0 0 0 0 127 0" result="hardAlpha"/>
<feOffset dy="4"/>
<feGaussianBlur stdDeviation="2"/>
<feComposite in2="hardAlpha" operator="out"/>
<feColorMatrix type="matrix" values="0 0 0 0 0 0 0 0 0 0 0 0 0 0 0 0 0 0 0.25 0"/>
<feBlend mode="normal" in2="BackgroundImageFix" result="effect1_dropShadow_503_7098"/>
<feBlend mode="normal" in="SourceGraphic" in2="effect1_dropShadow_503_7098" result="shape"/>
</filter>
</defs>
</svg>
