<svg width="122" height="122" viewBox="0 0 122 122" fill="none" xmlns="http://www.w3.org/2000/svg">
<g clip-path="url(#clip0_503_668)">
<path d="M74.2754 40.7956C79.5366 40.7956 83.8017 36.5305 83.8017 31.2692C83.8017 26.008 79.5366 21.7429 74.2754 21.7429C69.0141 21.7429 64.749 26.008 64.749 31.2692C64.749 36.5305 69.0141 40.7956 74.2754 40.7956Z" fill="#6788FF"/>
<path d="M89.6597 12.5953C92.8939 12.5953 95.5157 9.9735 95.5157 6.73932C95.5157 3.50513 92.8939 0.883301 89.6597 0.883301C86.4255 0.883301 83.8037 3.50513 83.8037 6.73932C83.8037 9.9735 86.4255 12.5953 89.6597 12.5953Z" fill="#6788FF"/>
<path d="M102.697 38.7882L105.612 17.2606C105.905 15.0986 104.389 13.1084 102.227 12.8158C100.065 12.5226 98.0751 14.0386 97.7825 16.2006L95.1333 35.766L82.1494 42.9789L66.8105 46.9266L51.213 53.7099L41.9264 48.447L35.773 34.2369L36.3824 28.0006L36.3682 28.0066C37.753 24.7854 37.7014 20.4645 35.9078 16.3228C32.9879 9.57974 26.563 5.87045 21.5576 8.03797C16.5523 10.2055 14.8617 17.4289 17.7817 24.1722C19.5753 28.314 22.6912 31.3077 25.988 32.5018L25.9738 32.5079L30.9391 36.3302L35.4256 46.6906C34.7135 47.0264 34.0935 47.575 33.6758 48.3121C32.5999 50.2102 33.2665 52.6211 35.1649 53.697L39.531 56.1713L42.7389 63.5791C43.3172 64.9141 44.8674 65.5273 46.2022 64.9494C47.5369 64.3713 48.1506 62.8206 47.5725 61.4861L47.1379 60.4824L49.0326 61.5562C49.6344 61.8975 50.3065 62.0698 50.9805 62.0698C51.5154 62.0698 52.0519 61.961 52.5557 61.7419L65.3865 56.1616L71.2075 83.8175L68.3065 98.7829L59.614 114.002C58.1712 116.528 59.0493 119.746 61.5755 121.189C64.1036 122.632 67.3202 121.751 68.7618 119.227L77.886 103.252C78.1718 102.752 78.3732 102.208 78.4833 101.642L82.0588 83.1978L84.427 82.6992L93.261 95.7831L90.1624 115.809C89.7173 118.684 91.6876 121.375 94.5625 121.82C97.4314 122.265 100.128 120.299 100.573 117.42L103.987 95.353C104.191 94.0409 103.891 92.7006 103.148 91.6L95.2702 79.9328L88.6359 48.4133L100.701 41.711C101.79 41.1064 102.53 40.0229 102.697 38.7882ZM33.9971 34.4136L32.3292 35.1819L28.2854 32.1257C28.2854 32.1257 31.8904 32.1257 34.4583 29.492L33.9971 34.4136Z" fill="#6788FF"/>
</g>
<defs>
<clipPath id="clip0_503_668">
<rect width="121" height="121" fill="white" transform="translate(0.5 0.883301)"/>
</clipPath>
</defs>
</svg>
